<mxfile host="app.diagrams.net" modified="2024-05-31T07:33:20.002Z" agent="Mozilla/5.0 (Windows NT 10.0; Win64; x64) AppleWebKit/537.36 (KHTML, like Gecko) Chrome/122.0.0.0 YaBrowser/24.4.0.0 Safari/537.36" version="24.4.10" etag="fVda-NxUVSb1SLumttX7" type="github">
  <diagram name="Страница — 1" id="HpnyqSXb48-z0PxH-YZc">
    <mxGraphModel>
      <root>
        <mxCell id="0" />
        <mxCell id="1" parent="0" />
      </root>
    </mxGraphModel>
  </diagram>
</mxfile>
